<svg width="15.446289" height="15.446594" viewBox="0 0 15.4463 15.4466" fill="none" xmlns="http://www.w3.org/2000/svg" xmlns:xlink="http://www.w3.org/1999/xlink">
	<desc>
			Created with Pixso.
	</desc>
	<defs/>
	<path id="Vector" d="M14.82 0L0.61 0C0.27 0 0 0.27 0 0.61L0 14.82C0 15.17 0.27 15.44 0.61 15.44L14.82 15.44C15.17 15.44 15.44 15.17 15.44 14.82L15.44 0.61C15.44 0.27 15.17 0 14.82 0ZM13.04 4.5L11.81 4.5C10.84 4.5 10.65 4.96 10.65 5.64L10.65 7.13L12.96 7.13L12.66 9.46L10.65 9.46L10.65 15.44L8.24 15.44L8.24 9.46L6.23 9.46L6.23 7.13L8.24 7.13L8.24 5.41C8.24 3.41 9.46 2.33 11.24 2.33C12.1 2.33 12.83 2.39 13.04 2.42L13.04 4.5L13.04 4.5Z" fill="#FFFFFF" fill-opacity="1.000000" fill-rule="nonzero"/>
</svg>
