<svg width="15.615234" height="15.614441" viewBox="0 0 15.6152 15.6144" fill="none" xmlns="http://www.w3.org/2000/svg" xmlns:xlink="http://www.w3.org/1999/xlink">
	<desc>
			Created with Pixso.
	</desc>
	<defs/>
	<path id="Vector" d="M7.8 5.2C6.37 5.2 5.2 6.37 5.2 7.8C5.2 9.24 6.37 10.41 7.8 10.41C9.23 10.41 10.4 9.24 10.4 7.8C10.4 6.37 9.23 5.2 7.8 5.2ZM15.61 7.8C15.61 6.72 15.62 5.66 15.56 4.58C15.5 3.33 15.21 2.22 14.3 1.31C13.38 0.39 12.28 0.11 11.03 0.05C9.95 -0.01 8.88 0 7.8 0C6.72 0 5.66 -0.01 4.58 0.05C3.33 0.11 2.22 0.39 1.31 1.31C0.39 2.22 0.11 3.33 0.05 4.58C-0.01 5.66 0 6.73 0 7.8C0 8.88 -0.01 9.95 0.05 11.02C0.11 12.27 0.39 13.38 1.31 14.3C2.22 15.21 3.33 15.5 4.58 15.56C5.66 15.62 6.73 15.61 7.8 15.61C8.88 15.61 9.95 15.62 11.03 15.56C12.28 15.5 13.38 15.21 14.3 14.3C15.21 13.38 15.5 12.27 15.56 11.02C15.62 9.95 15.61 8.88 15.61 7.8ZM7.8 11.81C5.58 11.81 3.79 10.02 3.79 7.8C3.79 5.59 5.58 3.8 7.8 3.8C10.02 3.8 11.81 5.59 11.81 7.8C11.81 10.02 10.02 11.81 7.8 11.81ZM11.97 4.57C11.45 4.57 11.04 4.15 11.04 3.63C11.04 3.11 11.45 2.7 11.97 2.7C12.49 2.7 12.91 3.11 12.91 3.63C12.91 3.76 12.88 3.88 12.83 3.99C12.79 4.1 12.72 4.21 12.63 4.29C12.54 4.38 12.44 4.45 12.33 4.5C12.21 4.54 12.09 4.57 11.97 4.57Z" fill="#FFFFFF" fill-opacity="1.000000" fill-rule="nonzero"/>
</svg>
