<svg width="34.071289" height="21.957031" viewBox="0 0 34.0713 21.957" fill="none" xmlns="http://www.w3.org/2000/svg" xmlns:xlink="http://www.w3.org/1999/xlink">
	<desc>
			Created with Pixso.
	</desc>
	<defs>
		<clipPath id="clip41_1705">
			<rect id="payment-methods/light/paypal" width="34.071232" height="21.957016" fill="white" fill-opacity="0"/>
		</clipPath>
	</defs>
	<g clip-path="url(#clip41_1705)">
		<path id="Rectangle 1" d="M0 2.74C0 1.22 1.27 0 2.83 0L31.23 0C32.8 0 34.07 1.22 34.07 2.74L34.07 19.21C34.07 20.72 32.79 21.95 31.23 21.95L2.83 21.95C1.27 21.95 0 20.72 0 19.21L0 2.74Z" fill="#CCDEFF" fill-opacity="1.000000" fill-rule="nonzero"/>
		<path id="Vector" d="M7.64 7.9C7.28 7.66 6.82 7.54 6.25 7.54L4.03 7.54C3.85 7.54 3.76 7.63 3.74 7.8L2.84 13.26C2.83 13.32 2.84 13.37 2.88 13.41C2.92 13.46 2.96 13.48 3.02 13.48L4.07 13.48C4.26 13.48 4.36 13.39 4.38 13.22L4.63 11.75C4.63 11.68 4.67 11.62 4.72 11.58C4.78 11.53 4.85 11.5 4.93 11.49C5.01 11.48 5.09 11.47 5.17 11.47C5.24 11.47 5.33 11.47 5.43 11.48C5.53 11.49 5.6 11.5 5.62 11.5C6.42 11.5 7.04 11.28 7.5 10.85C7.95 10.41 8.17 9.81 8.17 9.04C8.17 8.52 8 8.13 7.64 7.9L7.64 7.9ZM6.5 9.54C6.45 9.85 6.33 10.06 6.14 10.16C5.94 10.25 5.66 10.3 5.3 10.3L4.85 10.32L5.08 8.88C5.1 8.78 5.16 8.74 5.26 8.74L5.53 8.74C5.9 8.74 6.16 8.79 6.33 8.89C6.5 8.99 6.55 9.21 6.5 9.54Z" fill="#003087" fill-opacity="1.000000" fill-rule="nonzero"/>
		<path id="Vector" d="M31.05 7.54L30.02 7.54C29.92 7.54 29.86 7.59 29.84 7.69L28.94 13.26L28.93 13.29C28.93 13.34 28.94 13.38 28.98 13.42C29.02 13.46 29.06 13.48 29.12 13.48L30.04 13.48C30.21 13.48 30.31 13.39 30.33 13.22L31.23 7.74L31.23 7.73C31.23 7.61 31.17 7.54 31.05 7.54L31.05 7.54Z" fill="#009CDE" fill-opacity="1.000000" fill-rule="nonzero"/>
		<path id="Vector" d="M18.65 9.7C18.65 9.66 18.64 9.61 18.6 9.57C18.56 9.53 18.52 9.51 18.47 9.51L17.41 9.51C17.3 9.51 17.22 9.56 17.16 9.65L15.69 11.74L15.08 9.73C15.03 9.59 14.93 9.51 14.77 9.51L13.73 9.51C13.69 9.51 13.64 9.53 13.61 9.57C13.57 9.61 13.55 9.66 13.55 9.7C13.55 9.72 13.64 9.98 13.82 10.49C14 11 14.2 11.55 14.41 12.14C14.61 12.73 14.72 13.04 14.73 13.08C13.97 14.08 13.59 14.62 13.59 14.69C13.59 14.8 13.65 14.86 13.77 14.86L14.84 14.86C14.94 14.86 15.03 14.82 15.09 14.73L18.63 9.8C18.64 9.78 18.65 9.75 18.65 9.7L18.65 9.7Z" fill="#003087" fill-opacity="1.000000" fill-rule="nonzero"/>
		<path id="Vector" d="M28.59 9.51L27.54 9.51C27.41 9.51 27.33 9.66 27.31 9.95C27.06 9.6 26.63 9.42 25.99 9.42C25.32 9.42 24.76 9.66 24.29 10.14C23.82 10.62 23.59 11.19 23.59 11.84C23.59 12.37 23.75 12.79 24.07 13.1C24.39 13.42 24.81 13.57 25.35 13.57C25.62 13.57 25.89 13.52 26.17 13.41C26.45 13.3 26.66 13.16 26.82 12.98C26.82 12.99 26.81 13.03 26.79 13.1C26.77 13.17 26.76 13.23 26.76 13.26C26.76 13.41 26.82 13.48 26.94 13.48L27.9 13.48C28.08 13.48 28.18 13.39 28.21 13.22L28.77 9.73C28.78 9.67 28.77 9.62 28.73 9.58C28.7 9.53 28.65 9.51 28.59 9.51ZM26.79 12.15C26.55 12.37 26.27 12.49 25.93 12.49C25.66 12.49 25.45 12.42 25.28 12.27C25.11 12.13 25.03 11.93 25.03 11.68C25.03 11.35 25.15 11.07 25.38 10.85C25.61 10.62 25.9 10.5 26.24 10.5C26.5 10.5 26.71 10.58 26.88 10.72C27.05 10.87 27.14 11.08 27.14 11.33C27.14 11.66 27.02 11.93 26.79 12.15Z" fill="#009CDE" fill-opacity="1.000000" fill-rule="nonzero"/>
		<path id="Vector" d="M12.85 9.51L11.79 9.51C11.66 9.51 11.58 9.66 11.56 9.95C11.31 9.6 10.87 9.42 10.24 9.42C9.57 9.42 9.01 9.66 8.54 10.14C8.08 10.62 7.84 11.19 7.84 11.84C7.84 12.37 8 12.79 8.32 13.1C8.64 13.42 9.07 13.57 9.6 13.57C9.86 13.57 10.13 13.52 10.41 13.41C10.68 13.3 10.91 13.16 11.07 12.98C11.03 13.09 11.02 13.18 11.02 13.26C11.02 13.41 11.08 13.48 11.2 13.48L12.15 13.48C12.33 13.48 12.43 13.39 12.46 13.22L13.03 9.73C13.04 9.67 13.02 9.62 12.98 9.58C12.95 9.53 12.9 9.51 12.85 9.51ZM11.04 12.16C10.8 12.38 10.51 12.49 10.17 12.49C9.9 12.49 9.69 12.42 9.53 12.27C9.36 12.13 9.28 11.93 9.28 11.68C9.28 11.35 9.4 11.07 9.63 10.85C9.86 10.62 10.15 10.5 10.49 10.5C10.75 10.5 10.96 10.58 11.13 10.72C11.31 10.87 11.39 11.08 11.39 11.33C11.39 11.66 11.27 11.94 11.04 12.16Z" fill="#003087" fill-opacity="1.000000" fill-rule="nonzero"/>
		<path id="Vector" d="M23.39 7.9C23.03 7.66 22.57 7.54 22 7.54L19.79 7.54C19.61 7.54 19.5 7.63 19.49 7.8L18.58 13.26C18.58 13.32 18.59 13.37 18.63 13.41C18.66 13.46 18.71 13.48 18.77 13.48L19.9 13.48C20.01 13.48 20.09 13.42 20.12 13.3L20.37 11.75C20.38 11.68 20.41 11.62 20.47 11.58C20.53 11.53 20.59 11.5 20.68 11.49C20.76 11.48 20.84 11.47 20.91 11.47C20.99 11.47 21.08 11.47 21.18 11.48C21.28 11.49 21.34 11.5 21.37 11.5C22.17 11.5 22.79 11.28 23.24 10.85C23.7 10.41 23.92 9.81 23.92 9.04C23.92 8.52 23.74 8.13 23.39 7.9L23.39 7.9ZM21.97 10.1C21.76 10.24 21.46 10.3 21.05 10.3L20.61 10.32L20.84 8.88C20.86 8.78 20.92 8.74 21.02 8.74L21.27 8.74C21.48 8.74 21.64 8.74 21.76 8.76C21.88 8.78 22 8.84 22.11 8.93C22.22 9.02 22.27 9.16 22.27 9.34C22.27 9.71 22.17 9.97 21.97 10.1Z" fill="#009CDE" fill-opacity="1.000000" fill-rule="nonzero"/>
	</g>
</svg>
