<svg width="33.313965" height="21.957031" viewBox="0 0 33.314 21.957" fill="none" xmlns="http://www.w3.org/2000/svg" xmlns:xlink="http://www.w3.org/1999/xlink">
	<desc>
			Created with Pixso.
	</desc>
	<defs>
		<clipPath id="clip41_1696">
			<rect id="payment-methods/light/visa" width="33.314091" height="21.957016" fill="white" fill-opacity="0"/>
		</clipPath>
	</defs>
	<g clip-path="url(#clip41_1696)">
		<path id="Rectangle 2" d="M0 2.74C0 1.22 1.24 0 2.77 0L30.53 0C32.07 0 33.31 1.22 33.31 2.74L33.31 19.21C33.31 20.72 32.07 21.95 30.53 21.95L2.77 21.95C1.24 21.95 0 20.72 0 19.21L0 2.74Z" fill="#D8E3F3" fill-opacity="1.000000" fill-rule="nonzero"/>
		<path id="Vector" d="M28.67 6.88L26.92 6.88C26.39 6.88 25.99 7.04 25.74 7.56L22.42 15.06L24.77 15.06C24.77 15.06 25.18 14.06 25.26 13.82C25.5 13.82 27.81 13.82 28.14 13.82C28.22 14.1 28.42 15.02 28.42 15.02L30.53 15.02L28.67 6.88ZM25.91 12.13C26.11 11.65 26.8 9.85 26.8 9.85C26.8 9.89 27 9.37 27.08 9.08L27.25 9.81C27.25 9.81 27.69 11.77 27.77 12.17L25.91 12.17L25.91 12.13Z" fill="#3362AB" fill-opacity="1.000000" fill-rule="nonzero"/>
		<path id="Vector" d="M22.58 12.38C22.58 14.06 21.04 15.19 18.64 15.19C17.63 15.19 16.65 14.99 16.12 14.74L16.45 12.9L16.73 13.02C17.46 13.34 17.95 13.46 18.84 13.46C19.49 13.46 20.18 13.22 20.18 12.66C20.18 12.3 19.9 12.06 19.01 11.65C18.15 11.25 17.02 10.61 17.02 9.45C17.02 7.84 18.6 6.76 20.83 6.76C21.68 6.76 22.42 6.92 22.86 7.12L22.54 8.89L22.37 8.73C21.97 8.56 21.44 8.4 20.67 8.4C19.82 8.44 19.41 8.81 19.41 9.13C19.41 9.49 19.9 9.77 20.67 10.13C21.97 10.73 22.58 11.41 22.58 12.38Z" fill="#3362AB" fill-opacity="1.000000" fill-rule="nonzero"/>
		<path id="Vector" d="M2.77 6.96L2.81 6.8L6.3 6.8C6.79 6.8 7.15 6.96 7.28 7.48L8.05 11.09C7.28 9.17 5.49 7.6 2.77 6.96Z" fill="#F9B50B" fill-opacity="1.000000" fill-rule="nonzero"/>
		<path id="Vector" d="M12.96 6.88L9.43 15.03L7.03 15.03L5 8.2C6.46 9.13 7.68 10.57 8.13 11.57L8.37 12.42L10.56 6.84L12.96 6.84L12.96 6.88Z" fill="#3362AB" fill-opacity="1.000000" fill-rule="nonzero"/>
		<path id="Vector" d="M13.89 6.84L16.12 6.84L14.7 15.03L12.47 15.03L13.89 6.84Z" fill="#3362AB" fill-opacity="1.000000" fill-rule="nonzero"/>
	</g>
</svg>
