<svg width="33.314453" height="21.957031" viewBox="0 0 33.3145 21.957" fill="none" xmlns="http://www.w3.org/2000/svg" xmlns:xlink="http://www.w3.org/1999/xlink">
	<desc>
			Created with Pixso.
	</desc>
	<defs>
		<clipPath id="clip41_1726">
			<rect id="payment-methods/light/american-express" width="33.314091" height="21.957016" fill="white" fill-opacity="0"/>
		</clipPath>
	</defs>
	<g clip-path="url(#clip41_1726)">
		<path id="Rectangle 1" d="M0 2.74C0 1.22 1.24 0 2.77 0L30.53 0C32.07 0 33.31 1.22 33.31 2.74L33.31 19.21C33.31 20.72 32.07 21.95 30.53 21.95L2.77 21.95C1.24 21.95 0 20.72 0 19.21L0 2.74Z" fill="#D4DEF7" fill-opacity="1.000000" fill-rule="nonzero"/>
		<path id="Vector" d="M24.58 6.77L23.94 8.17L25.23 8.17L24.58 6.77ZM17.14 7.64C17.26 7.58 17.33 7.46 17.33 7.3C17.33 7.15 17.26 7.04 17.14 6.99C17.03 6.93 16.86 6.93 16.69 6.93L15.54 6.93L15.54 7.71L16.68 7.71C16.86 7.71 17.01 7.71 17.14 7.64ZM2.37 6.77L1.73 8.17L3.01 8.17L2.37 6.77ZM32.04 15.77L30.23 15.77L30.23 15.01L32.03 15.01C32.21 15.01 32.33 14.99 32.41 14.92C32.48 14.87 32.52 14.78 32.52 14.69C32.52 14.59 32.47 14.51 32.4 14.46C32.34 14.41 32.24 14.38 32.07 14.38C31.2 14.36 30.1 14.41 30.1 13.29C30.1 12.78 30.46 12.24 31.44 12.24L33.31 12.24L33.31 11.54L31.57 11.54C31.05 11.54 30.67 11.65 30.4 11.83L30.4 11.54L27.84 11.54C27.43 11.54 26.95 11.63 26.72 11.83L26.72 11.54L22.14 11.54L22.14 11.83C21.78 11.59 21.16 11.54 20.88 11.54L17.86 11.54L17.86 11.83C17.57 11.58 16.93 11.54 16.54 11.54L13.16 11.54L12.39 12.29L11.66 11.54L6.61 11.54L6.61 16.46L11.57 16.46L12.36 15.7L13.11 16.46L16.17 16.46L16.17 15.31L16.47 15.31C16.87 15.31 17.35 15.3 17.77 15.13L17.77 16.46L20.29 16.46L20.29 15.18L20.41 15.18C20.57 15.18 20.58 15.18 20.58 15.32L20.58 16.46L28.23 16.46C28.72 16.46 29.23 16.35 29.51 16.15L29.51 16.46L31.93 16.46C32.44 16.46 32.93 16.4 33.31 16.23L33.31 15.32C33.08 15.62 32.64 15.77 32.04 15.77L32.04 15.77ZM16.51 14.61L15.34 14.61L15.34 15.79L13.52 15.79L12.37 14.62L11.17 15.79L7.46 15.79L7.46 12.26L11.22 12.26L12.38 13.42L13.57 12.26L16.56 12.26C17.3 12.26 18.14 12.45 18.14 13.42C18.14 14.4 17.33 14.61 16.51 14.61ZM22.13 14.45C22.26 14.62 22.28 14.78 22.28 15.09L22.28 15.79L21.34 15.79L21.34 15.35C21.34 15.14 21.36 14.82 21.19 14.66C21.05 14.53 20.84 14.5 20.5 14.5L19.5 14.5L19.5 15.79L18.56 15.79L18.56 12.26L20.72 12.26C21.2 12.26 21.54 12.28 21.85 12.43C22.15 12.59 22.33 12.81 22.33 13.21C22.33 13.78 21.91 14.06 21.67 14.15C21.88 14.22 22.05 14.34 22.13 14.45ZM26 12.99L23.8 12.99L23.8 13.63L25.94 13.63L25.94 14.35L23.8 14.35L23.8 15.05L26 15.06L26 15.79L22.87 15.79L22.87 12.26L26 12.26L26 12.99ZM28.4 15.79L26.58 15.79L26.58 15.03L28.39 15.03C28.57 15.03 28.7 15.01 28.78 14.95C28.84 14.89 28.89 14.81 28.89 14.72C28.89 14.61 28.84 14.53 28.77 14.48C28.7 14.43 28.6 14.4 28.44 14.4C27.56 14.38 26.47 14.43 26.47 13.31C26.47 12.8 26.82 12.26 27.81 12.26L29.68 12.26L29.68 13.01L27.97 13.01C27.8 13.01 27.68 13.02 27.59 13.08C27.49 13.13 27.45 13.22 27.45 13.33C27.45 13.46 27.54 13.55 27.66 13.59C27.75 13.62 27.86 13.63 28.02 13.63L28.52 13.65C29.03 13.66 29.38 13.74 29.59 13.93C29.78 14.1 29.87 14.31 29.87 14.68C29.87 15.43 29.35 15.79 28.4 15.79ZM21.14 13.05C21.03 12.99 20.86 12.99 20.69 12.99L19.54 12.99L19.54 13.78L20.68 13.78C20.86 13.78 21.01 13.77 21.14 13.71C21.26 13.64 21.33 13.52 21.33 13.37C21.33 13.22 21.26 13.11 21.14 13.05ZM31.6 12.99C31.43 12.99 31.32 12.99 31.22 13.05C31.12 13.11 31.09 13.19 31.09 13.3C31.09 13.44 31.17 13.53 31.29 13.57C31.39 13.6 31.5 13.61 31.65 13.61L32.16 13.62C32.67 13.63 33.01 13.71 33.22 13.9C33.26 13.93 33.28 13.96 33.31 13.99L33.31 12.99L31.6 12.99L31.6 12.99ZM16.54 12.99L15.32 12.99L15.32 13.88L16.53 13.88C16.89 13.88 17.11 13.72 17.11 13.42C17.11 13.11 16.88 12.99 16.54 12.99ZM8.39 12.99L8.39 13.63L10.45 13.63L10.45 14.35L8.39 14.35L8.39 15.05L10.69 15.05L11.76 14.01L10.74 12.99L8.39 12.99ZM14.4 15.45L14.4 12.62L12.96 14.02L14.4 15.45ZM8.47 9.79L8.47 10.4L16.29 10.4L16.29 9.11L16.44 9.11C16.55 9.12 16.58 9.13 16.58 9.28L16.58 10.4L20.62 10.4L20.62 10.1C20.95 10.26 21.46 10.4 22.13 10.4L23.83 10.4L24.19 9.62L25 9.62L25.36 10.4L28.64 10.4L28.64 9.66L29.13 10.4L31.76 10.4L31.76 5.48L29.16 5.48L29.16 6.06L28.8 5.48L26.13 5.48L26.13 6.06L25.79 5.48L22.19 5.48C21.58 5.48 21.05 5.56 20.62 5.77L20.62 5.48L18.14 5.48L18.14 5.77C17.86 5.55 17.49 5.48 17.08 5.48L7.99 5.48L7.38 6.75L6.75 5.48L3.89 5.48L3.89 6.06L3.57 5.48L1.13 5.48L0 7.82L0 9.69L1.67 6.17L3.06 6.17L4.66 9.5L4.66 6.17L6.18 6.17L7.41 8.56L8.54 6.17L10.1 6.17L10.1 9.69L9.14 9.69L9.13 6.93L7.77 9.69L6.95 9.69L5.59 6.93L5.59 9.69L3.69 9.69L3.33 8.9L1.38 8.9L1.01 9.69L0 9.69L0 10.4L1.6 10.4L1.96 9.62L2.76 9.62L3.12 10.4L6.27 10.4L6.27 9.8L6.55 10.4L8.19 10.4L8.47 9.79L8.47 9.79ZM20.8 6.58C21.1 6.3 21.58 6.17 22.22 6.17L23.13 6.17L23.13 6.92L22.24 6.92C21.9 6.92 21.71 6.97 21.52 7.13C21.36 7.28 21.25 7.56 21.25 7.93C21.25 8.31 21.33 8.58 21.51 8.76C21.65 8.9 21.91 8.94 22.16 8.94L22.58 8.94L23.9 6.17L25.3 6.17L26.89 9.5L26.89 6.17L28.32 6.17L29.96 8.62L29.96 6.17L30.92 6.17L30.92 9.69L29.59 9.69L27.82 7.05L27.82 9.69L25.91 9.69L25.55 8.9L23.6 8.9L23.25 9.69L22.15 9.69C21.7 9.69 21.12 9.6 20.79 9.3C20.46 9 20.29 8.6 20.29 7.95C20.29 7.43 20.4 6.95 20.8 6.58ZM18.87 6.17L19.83 6.17L19.83 9.69L18.87 9.69L18.87 6.17ZM14.56 6.17L16.72 6.17C17.2 6.17 17.55 6.18 17.85 6.33C18.15 6.49 18.33 6.72 18.33 7.12C18.33 7.68 17.91 7.97 17.67 8.05C17.87 8.12 18.05 8.25 18.13 8.35C18.26 8.53 18.28 8.68 18.28 9L18.28 9.69L17.34 9.69L17.34 9.25C17.34 9.03 17.36 8.73 17.19 8.56C17.05 8.44 16.84 8.41 16.51 8.41L15.5 8.41L15.5 9.69L14.56 9.69L14.56 6.17ZM10.79 6.17L13.92 6.17L13.92 6.9L11.72 6.9L11.72 7.54L13.86 7.54L13.86 8.26L11.72 8.26L11.72 8.96L13.92 8.96L13.92 9.69L10.79 9.69L10.79 6.17Z" fill="#2557D6" fill-opacity="1.000000" fill-rule="nonzero"/>
	</g>
</svg>
