<svg width="34.071289" height="21.957031" viewBox="0 0 34.0713 21.957" fill="none" xmlns="http://www.w3.org/2000/svg" xmlns:xlink="http://www.w3.org/1999/xlink">
	<desc>
			Created with Pixso.
	</desc>
	<defs>
		<clipPath id="clip41_1723">
			<rect id="payment-methods/light/discover" width="34.071232" height="21.957016" fill="white" fill-opacity="0"/>
		</clipPath>
	</defs>
	<g clip-path="url(#clip41_1723)">
		<path id="Rectangle 1" d="M0 2.74C0 1.22 1.27 0 2.83 0L31.23 0C32.79 0 34.07 1.22 34.07 2.74L34.07 19.21C34.07 20.72 32.79 21.95 31.23 21.95L2.83 21.95C1.27 21.95 0 20.72 0 19.21L0 2.74Z" fill="#FCE0CF" fill-opacity="1.000000" fill-rule="nonzero"/>
		<path id="Vector" d="M20.28 10.96C20.28 10.37 20.06 9.78 19.59 9.33C19.13 8.89 18.52 8.67 17.91 8.67C17.91 8.67 17.9 8.67 17.9 8.67C16.57 8.67 15.52 9.69 15.52 10.97C15.52 12.24 16.59 13.27 17.9 13.27C19.23 13.27 20.28 12.25 20.28 10.97C20.28 10.97 20.28 10.96 20.28 10.96Z" fill="#F26E21" fill-opacity="1.000000" fill-rule="nonzero"/>
		<path id="Vector" d="M15.08 11.95C14.72 12.29 14.39 12.42 14.04 12.43C13.18 12.42 12.54 11.81 12.54 10.93C12.54 10.49 12.72 10.12 12.99 9.81C13.25 9.58 13.58 9.42 13.96 9.42C14.37 9.42 14.7 9.56 15.06 9.91L15.06 8.89C14.7 8.71 14.37 8.63 13.96 8.63C13.38 8.67 12.83 8.89 12.41 9.25C12.29 9.36 12.17 9.47 12.07 9.61C11.77 9.99 11.58 10.46 11.58 10.97C11.58 12.26 12.63 13.23 13.96 13.23C13.97 13.23 13.98 13.23 13.98 13.23C13.99 13.23 14 13.23 14.01 13.23C14.37 13.23 14.7 13.14 15.11 12.96L15.08 11.95C15.06 11.96 15.09 11.97 15.08 11.99L15.08 11.95Z" fill="#2B2B2B" fill-opacity="1.000000" fill-rule="nonzero"/>
		<path id="Vector" d="M23.29 9.26L22.25 11.73L21.06 8.8L20.1 8.8L21.98 13.27L22.48 13.27L24.45 8.8L23.49 8.8L23.29 9.26Z" fill="#2B2B2B" fill-opacity="1.000000" fill-rule="nonzero"/>
		<path id="Vector" d="M24.82 10.75L24.82 13.14L27.29 13.14L27.33 13.14L27.33 12.43L26.56 12.43L25.73 12.43L25.73 11.64L25.73 11.24L27.29 11.24L27.29 10.49L25.73 10.49L25.73 9.56L27.33 9.56L27.33 8.8L24.82 8.8L24.82 10.75Z" fill="#2B2B2B" fill-opacity="1.000000" fill-rule="nonzero"/>
		<path id="Vector" d="M4.12 8.8L2.83 8.8L2.83 13.14L4.12 13.14C4.8 13.14 5.31 12.97 5.72 12.66C6.22 12.26 6.54 11.64 6.54 10.97C6.54 9.69 5.58 8.8 4.12 8.8ZM5.17 12.08C4.89 12.3 4.53 12.43 3.98 12.43L3.7 12.43L3.7 9.56L3.93 9.56C4.48 9.56 4.85 9.65 5.12 9.91C5.44 10.18 5.63 10.57 5.63 10.97C5.67 11.37 5.49 11.81 5.17 12.08Z" fill="#2B2B2B" fill-opacity="1.000000" fill-rule="nonzero"/>
		<path id="Vector" d="M6.96 8.8L7.83 8.8L7.83 13.14L6.96 13.14L6.96 8.8Z" fill="#2B2B2B" fill-opacity="1.000000" fill-rule="evenodd"/>
		<path id="Vector" d="M10.02 10.49C9.47 10.31 9.34 10.18 9.34 9.95C9.34 9.69 9.61 9.47 9.98 9.47C10.25 9.47 10.48 9.56 10.71 9.82L11.17 9.25C10.8 8.94 10.35 8.76 9.84 8.76C9.06 8.76 8.42 9.29 8.42 10C8.42 10.62 8.7 10.88 9.52 11.19C9.89 11.33 10.02 11.37 10.12 11.46C10.3 11.55 10.39 11.73 10.39 11.9C10.39 12.26 10.12 12.52 9.7 12.52C9.29 12.52 8.93 12.3 8.74 11.95L8.19 12.48C8.6 13.05 9.11 13.32 9.75 13.32C10.67 13.32 11.31 12.74 11.31 11.9C11.31 11.15 11.03 10.84 10.02 10.49Z" fill="#2B2B2B" fill-opacity="1.000000" fill-rule="nonzero"/>
		<path id="Vector" d="M29.81 11.33C30.49 11.19 30.86 10.75 30.86 10.09C30.86 9.29 30.27 8.8 29.26 8.8L27.93 8.8L27.93 13.14L28.8 13.14L28.8 11.41L28.94 11.41L30.17 13.14L31.23 13.14L29.81 11.33ZM29.07 10.8L28.8 10.8L28.8 9.47L29.07 9.47C29.62 9.47 29.95 9.69 29.95 10.13C29.95 10.57 29.62 10.8 29.07 10.8Z" fill="#2B2B2B" fill-opacity="1.000000" fill-rule="nonzero"/>
	</g>
</svg>
