<svg width="16.991211" height="16.991211" viewBox="0 0 16.9912 16.9912" fill="none" xmlns="http://www.w3.org/2000/svg" xmlns:xlink="http://www.w3.org/1999/xlink">
	<desc>
			Created with Pixso.
	</desc>
	<defs/>
	<path id="Vector" d="M16.31 0L0.67 0C0.3 0 0 0.3 0 0.67L0 16.31C0 16.68 0.3 16.99 0.67 16.99L16.31 16.99C16.68 16.99 16.99 16.68 16.99 16.31L16.99 0.67C16.99 0.3 16.68 0 16.31 0ZM14.34 4.95L12.99 4.95C11.92 4.95 11.72 5.46 11.72 6.2L11.72 7.84L14.26 7.84L13.93 10.4L11.72 10.4L11.72 16.99L9.07 16.99L9.07 10.41L6.85 10.41L6.85 7.84L9.07 7.84L9.07 5.95C9.07 3.76 10.41 2.56 12.37 2.56C13.31 2.56 14.11 2.63 14.35 2.66L14.35 4.95L14.34 4.95Z" fill="#FFFFFF" fill-opacity="1.000000" fill-rule="nonzero"/>
</svg>
