<svg width="17.176270" height="17.176025" viewBox="0 0 17.1763 17.176" fill="none" xmlns="http://www.w3.org/2000/svg" xmlns:xlink="http://www.w3.org/1999/xlink">
	<desc>
			Created with Pixso.
	</desc>
	<defs/>
	<path id="Vector" d="M8.58 5.72C7 5.72 5.72 7.01 5.72 8.58C5.72 10.16 7 11.45 8.58 11.45C10.16 11.45 11.44 10.16 11.44 8.58C11.44 7.01 10.16 5.72 8.58 5.72ZM17.17 8.58C17.17 7.4 17.18 6.22 17.11 5.04C17.05 3.66 16.73 2.44 15.73 1.44C14.72 0.43 13.5 0.12 12.13 0.05C10.94 -0.02 9.77 0 8.58 0C7.4 0 6.22 -0.02 5.04 0.05C3.66 0.12 2.44 0.43 1.44 1.44C0.43 2.44 0.12 3.66 0.05 5.04C-0.02 6.22 0 7.4 0 8.58C0 9.77 -0.02 10.94 0.05 12.13C0.12 13.5 0.43 14.72 1.44 15.73C2.44 16.74 3.66 17.05 5.04 17.11C6.22 17.18 7.4 17.17 8.58 17.17C9.77 17.17 10.94 17.18 12.13 17.11C13.5 17.05 14.72 16.73 15.73 15.73C16.74 14.72 17.05 13.5 17.11 12.13C17.18 10.94 17.17 9.77 17.17 8.58ZM8.58 12.99C6.14 12.99 4.17 11.02 4.17 8.58C4.17 6.14 6.14 4.18 8.58 4.18C11.02 4.18 12.99 6.14 12.99 8.58C12.99 11.02 11.02 12.99 8.58 12.99ZM13.17 5.03C12.6 5.03 12.14 4.57 12.14 4C12.14 3.43 12.6 2.97 13.17 2.97C13.74 2.97 14.2 3.43 14.2 4C14.2 4.13 14.17 4.27 14.12 4.39C14.07 4.52 13.99 4.63 13.9 4.72C13.8 4.82 13.69 4.9 13.56 4.95C13.44 5 13.3 5.03 13.17 5.03Z" fill="#FFFFFF" fill-opacity="1.000000" fill-rule="nonzero"/>
</svg>
